<svg xmlns="http://www.w3.org/2000/svg" viewBox="0 0 84.75 81.51"><defs><style>.cls-1{fill:#dff5ef;}</style></defs><g id="Layer_2" data-name="Layer 2"><g id="Layer_1-2" data-name="Layer 1"><path class="cls-1" d="M54.57,37.37a13.88,13.88,0,0,0-14-11.77A14.93,14.93,0,0,0,25.85,37.37H19.48v5.11h6.1A15.12,15.12,0,0,0,40.74,56.17c6.07,0,11-2.4,13.16-6.36l-5.35-3.43c-1.38,2.28-4.38,3.73-7.69,3.73-4.74,0-8-2.89-8.7-7.63H59.31L61,37.37ZM40.26,31.13c4,0,7.09,2.58,7.45,6.24H32.39C33.42,33.53,36.24,31.13,40.26,31.13Z"/><path class="cls-1" d="M44,0A40.8,40.8,0,0,1,84.75,40.76h-7A33.77,33.77,0,0,0,44,7Z"/><path class="cls-1" d="M0,40.76H7A33.77,33.77,0,0,0,40.76,74.49v7A40.8,40.8,0,0,1,0,40.76Z"/></g></g></svg>