<svg width="25" height="27" viewBox="0 0 25 27" fill="none" xmlns="http://www.w3.org/2000/svg">
<path fill-rule="evenodd" clip-rule="evenodd" d="M7.90326 13.5027L16.0128 21.5008L21.1315 16.4532C22.0468 15.6405 23.4471 15.6766 24.3181 16.5354C25.189 17.3943 25.2256 18.7751 24.4015 19.6777L17.6465 26.34C16.7391 27.22 15.2839 27.22 14.3765 26.34L4.63077 16.7273V22.4409C4.63077 23.7018 3.59414 24.7241 2.31539 24.7241C1.03663 24.7241 0 23.7018 0 22.4409V4.55717C0 3.29619 1.03663 2.27396 2.31539 2.27396C3.59414 2.27396 4.63077 3.29619 4.63077 4.55717V10.2708L14.3753 0.660459C15.2824 -0.220153 16.7382 -0.220153 17.6452 0.660459L24.4053 7.32157C25.2294 8.22415 25.1928 9.60501 24.3218 10.4638C23.4509 11.3226 22.0506 11.3588 21.1353 10.5461L16.0165 5.49848L7.90326 13.5027ZM16.0165 11.217C15.0789 11.2165 14.2333 11.7731 13.8742 12.6272C13.515 13.4812 13.713 14.4646 14.3758 15.1185C15.0387 15.7725 16.0357 15.9683 16.902 15.6145C17.7683 15.2608 18.3332 14.4273 18.3332 13.5027C18.3335 12.8965 18.0896 12.315 17.6552 11.8861C17.2207 11.4573 16.6313 11.2161 16.0165 11.2158V11.217Z" fill="#2DBD96"/>
</svg>
