<svg xmlns="http://www.w3.org/2000/svg" version="1.0" width="640.000000pt" height="640.000000pt" viewBox="0 0 640.000000 640.000000" preserveAspectRatio="xMidYMid meet">

<g transform="translate(0.000000,640.000000) scale(0.100000,-0.100000)" fill="#dd7553" stroke="none">
<path d="M3090 6256 c-45 -17 -520 -225 -540 -237 -9 -5 116 -9 303 -9 l317 0 0 130 c0 128 0 130 -22 130 -13 -1 -39 -7 -58 -14z" fill="#dd7553"/>
<path d="M3230 6141 l0 -131 318 0 c183 0 311 4 302 9 -46 27 -560 244 -587 248 l-33 6 0 -132z" fill="#dd7553"/>
<path d="M2730 6205 c-41 -8 -151 -25 -245 -40 -93 -15 -171 -28 -173 -30 -2 -2 14 -27 34 -57 21 -29 38 -54 39 -55 1 -3 438 187 444 193 6 6 -14 3 -99 -11z" fill="#dd7553"/>
<path d="M3602 6205 c3 -3 96 -45 206 -94 l202 -88 41 54 c22 30 39 56 37 58 -4 3 -458 75 -477 75 -8 0 -12 -2 -9 -5z" fill="#dd7553"/>
<path d="M1993 5997 c-133 -67 -240 -123 -239 -125 3 -3 373 82 523 120 l42 10 -40 59 c-22 32 -41 59 -42 59 -1 -1 -111 -56 -244 -123z" fill="#dd7553"/>
<path d="M4122 6061 l-41 -59 137 -32 c75 -18 200 -47 277 -65 77 -19 141 -32 143 -31 1 2 -105 58 -236 124 l-239 121 -41 -58z" fill="#dd7553"/>
<path d="M2480 5893 c23 -32 80 -113 128 -180 47 -68 88 -123 92 -123 3 0 35 26 71 58 36 31 96 84 134 117 37 33 89 79 114 101 25 23 57 51 71 63 l25 20 -338 1 -338 0 41 -57z" fill="#dd7553"/>
<path d="M3320 5919 c19 -17 62 -54 94 -82 33 -29 80 -71 105 -93 91 -82 176 -154 181 -154 3 0 62 81 132 180 l127 180 -337 0 -337 0 35 -31z" fill="#dd7553"/>
<path d="M2314 5882 c-28 -26 -75 -69 -106 -97 -348 -312 -433 -390 -427 -393 10 -4 832 159 842 167 6 6 -232 353 -251 365 -4 2 -30 -17 -58 -42z" fill="#dd7553"/>
<path d="M3050 5807 c-75 -67 -165 -148 -200 -179 l-65 -57 415 0 415 0 -31 27 c-17 15 -46 40 -65 57 -82 71 -207 184 -254 227 -27 26 -57 47 -65 47 -8 0 -76 -55 -150 -122z" fill="#dd7553"/>
<path d="M4007 5898 c-107 -143 -236 -333 -230 -338 10 -9 831 -172 843 -168 4 2 -40 45 -99 97 -134 119 -245 219 -382 344 l-108 98 -24 -33z" fill="#dd7553"/>
<path d="M1870 5830 c-206 -49 -392 -97 -413 -107 l-37 -18 102 -140 c57 -78 110 -152 119 -165 l16 -24 104 94 c58 52 191 173 297 269 166 149 202 184 190 180 -2 0 -172 -41 -378 -89z" fill="#dd7553"/>
<path d="M4201 5867 c53 -49 271 -247 342 -310 18 -16 67 -61 111 -100 43 -40 82 -72 86 -72 5 0 61 72 124 160 l116 159 -33 17 c-18 10 -190 54 -382 99 -193 44 -366 85 -385 90 l-35 9 56 -52z" fill="#dd7553"/>
<path d="M4917 5510 c-64 -89 -117 -164 -117 -168 0 -4 60 -42 133 -84 72 -41 230 -133 351 -202 149 -86 214 -119 204 -104 -8 13 -74 122 -148 243 -217 358 -270 442 -288 459 -17 15 -25 6 -135 -144z" fill="#dd7553"/>
<path d="M1342 5643 c-21 -18 -50 -63 -227 -358 -56 -93 -126 -208 -154 -254 -28 -46 -50 -85 -49 -86 2 -2 157 85 345 193 227 131 341 201 338 210 -7 20 -219 311 -226 312 -4 0 -16 -8 -27 -17z" fill="#dd7553"/>
<path d="M2822 5413 c33 -49 78 -110 98 -138 20 -27 90 -125 155 -218 65 -92 122 -166 126 -165 5 2 70 91 147 198 76 107 173 243 215 303 l77 107 -440 0 -440 0 62 -87z" fill="#dd7553"/>
<path d="M3832 5420 c27 -36 134 -182 238 -325 105 -143 201 -273 213 -289 l24 -29 191 264 c106 145 188 265 184 267 -4 1 -208 42 -453 90 l-446 88 49 -66z" fill="#dd7553"/>
<path d="M2147 5394 c-231 -45 -423 -84 -428 -86 -7 -2 332 -479 371 -521 4 -4 64 70 133 165 188 257 345 471 360 488 28 33 29 40 5 39 -13 -1 -211 -39 -441 -85z" fill="#dd7553"/>
<path d="M2633 5397 c-33 -45 -151 -205 -261 -356 -111 -151 -201 -276 -199 -277 2 -3 934 84 953 88 6 2 -89 143 -211 315 l-222 312 -60 -82z" fill="#dd7553"/>
<path d="M3661 5413 c-22 -32 -63 -89 -91 -128 -116 -160 -307 -430 -306 -432 1 -1 199 -20 441 -43 242 -22 459 -43 483 -46 23 -3 42 -2 42 1 0 4 -24 39 -53 79 -108 144 -374 503 -417 563 -25 34 -48 63 -52 63 -3 0 -25 -26 -47 -57z" fill="#dd7553"/>
<path d="M917 5219 c-134 -135 -195 -204 -189 -212 45 -61 75 -97 80 -97 4 0 18 19 31 43 13 23 61 103 107 178 99 161 175 289 171 289 -1 -1 -91 -91 -200 -201z" fill="#dd7553"/>
<path d="M5282 5415 c10 -20 300 -500 307 -508 4 -4 26 21 50 54 l43 61 -202 202 c-111 110 -200 197 -198 191z" fill="#dd7553"/>
<path d="M4554 5010 c-104 -143 -190 -263 -191 -267 -3 -8 819 -284 826 -278 3 4 -181 338 -377 683 l-70 122 -188 -260z" fill="#dd7553"/>
<path d="M1617 5198 c-19 -35 -45 -81 -57 -103 -13 -22 -44 -78 -70 -125 -26 -47 -56 -101 -67 -120 -11 -19 -54 -96 -95 -170 -42 -74 -85 -152 -97 -173 -11 -21 -21 -39 -21 -42 0 -2 185 58 411 134 226 75 411 140 411 144 0 11 -365 516 -374 517 -3 0 -22 -28 -41 -62z" fill="#dd7553"/>
<path d="M4840 5234 c0 -6 8 -21 135 -249 82 -147 87 -156 213 -383 l79 -143 138 186 c75 102 136 188 134 190 -4 3 -129 76 -506 293 -106 61 -193 109 -193 106z" fill="#dd7553"/>
<path d="M1470 5187 c-402 -232 -606 -349 -608 -352 -4 -4 261 -364 268 -364 3 -1 23 32 45 71 22 40 57 104 79 143 21 38 77 138 123 220 47 83 99 175 116 205 16 30 39 70 49 88 11 17 16 32 11 32 -4 0 -42 -20 -83 -43z" fill="#dd7553"/>
<path d="M562 4716 c-67 -132 -112 -229 -100 -215 13 15 86 98 164 185 l141 159 -41 56 -41 57 -123 -242z" fill="#dd7553"/>
<path d="M5672 4902 l-41 -58 145 -165 c80 -90 155 -174 168 -187 13 -13 -31 84 -98 217 -67 132 -124 243 -127 246 -3 3 -24 -21 -47 -53z" fill="#dd7553"/>
<path d="M3025 4775 c-5 -2 -199 -20 -430 -41 -231 -20 -423 -40 -427 -43 -3 -3 84 -130 194 -281 110 -151 225 -310 255 -352 30 -43 58 -78 63 -78 4 0 36 52 71 115 35 64 89 159 120 213 98 170 259 460 259 466 0 6 -88 7 -105 1z" fill="#dd7553"/>
<path d="M3270 4773 c0 -5 101 -187 224 -406 l224 -399 39 54 c142 192 476 654 479 663 3 7 -150 25 -463 53 -504 46 -503 46 -503 35z" fill="#dd7553"/>
<path d="M816 4759 c-12 -37 -148 -455 -174 -535 l-29 -91 156 92 c86 51 189 112 230 136 41 24 76 49 77 54 5 16 -255 360 -260 344z" fill="#dd7553"/>
<path d="M5446 4596 c-71 -96 -128 -177 -128 -181 1 -8 464 -287 468 -282 4 4 -197 621 -205 630 -4 4 -65 -71 -135 -167z" fill="#dd7553"/>
<path d="M3163 4693 c-16 -32 -79 -143 -138 -248 -59 -104 -121 -215 -138 -245 -16 -30 -36 -65 -43 -77 -8 -12 -26 -44 -40 -70 -15 -26 -35 -63 -46 -80 l-20 -33 462 0 461 0 -38 68 c-185 332 -419 742 -423 742 -3 0 -20 -26 -37 -57z" fill="#dd7553"/>
<path d="M674 4643 c-27 -32 -53 -63 -59 -69 -5 -6 -75 -84 -155 -173 -144 -161 -183 -217 -158 -225 36 -12 215 -69 224 -73 6 -2 15 8 18 24 8 33 177 555 183 566 12 22 -10 0 -53 -50z" fill="#dd7553"/>
<path d="M5673 4688 c2 -7 46 -141 97 -298 50 -157 94 -287 95 -289 5 -4 228 69 238 79 5 4 3 19 -5 33 -13 25 -417 487 -425 487 -3 0 -3 -6 0 -12z" fill="#dd7553"/>
<path d="M4454 4453 c188 -440 288 -668 295 -676 4 -4 107 126 228 290 251 341 238 322 221 327 -37 12 -815 269 -825 273 -6 3 30 -94 81 -214z" fill="#dd7553"/>
<path d="M1598 4523 l-408 -135 22 -32 c50 -71 438 -589 438 -585 0 3 27 68 61 144 80 185 299 694 310 723 6 15 5 22 -4 21 -6 -1 -195 -62 -419 -136z" fill="#dd7553"/>
<path d="M2087 4619 c-8 -19 -72 -167 -142 -329 -195 -452 -228 -530 -223 -535 5 -6 886 170 894 178 5 4 -474 676 -506 711 -5 5 -15 -7 -23 -25z" fill="#dd7553"/>
<path d="M4032 4293 c-143 -197 -259 -360 -257 -362 5 -4 915 -189 915 -185 0 3 -320 746 -364 847 -14 31 -28 57 -30 57 -2 0 -121 -161 -264 -357z" fill="#dd7553"/>
<path d="M5026 4031 c-121 -163 -221 -301 -223 -306 -1 -6 88 -38 200 -73 111 -35 273 -86 360 -114 87 -27 160 -48 162 -46 2 1 -26 91 -61 198 -35 107 -96 295 -136 418 -39 122 -74 222 -77 221 -3 0 -105 -134 -225 -298z" fill="#dd7553"/>
<path d="M5324 4314 c4 -11 61 -185 128 -389 101 -311 138 -415 138 -384 0 3 49 118 109 256 l108 251 -235 138 c-130 77 -240 141 -245 143 -6 2 -7 -4 -3 -15z" fill="#dd7553"/>
<path d="M833 4187 c-122 -73 -225 -135 -228 -139 -6 -5 197 -492 210 -506 4 -4 255 758 255 771 0 14 -19 4 -237 -126z" fill="#dd7553"/>
<path d="M1128 4273 c-9 -27 -63 -190 -118 -363 -56 -173 -108 -334 -116 -358 -8 -23 -14 -46 -14 -51 0 -5 78 16 173 47 166 53 210 67 420 131 53 17 103 34 111 38 10 6 -19 52 -118 185 -72 97 -171 230 -220 297 -48 67 -91 121 -95 121 -4 0 -14 -21 -23 -47z" fill="#dd7553"/>
<path d="M263 4092 c-7 -29 45 -612 56 -624 4 -4 48 121 99 278 52 157 91 288 89 290 -2 2 -56 22 -121 43 l-116 40 -7 -27z" fill="#dd7553"/>
<path d="M6011 4082 c-63 -21 -116 -43 -118 -49 -4 -12 174 -572 186 -585 8 -9 62 538 61 620 0 28 -3 52 -7 52 -5 -1 -59 -18 -122 -38z" fill="#dd7553"/>
<path d="M5792 3863 c-22 -54 -70 -165 -106 -247 -37 -83 -63 -153 -59 -157 16 -15 424 -137 421 -126 -2 7 -49 150 -103 320 -55 169 -103 307 -106 307 -4 0 -25 -44 -47 -97z" fill="#dd7553"/>
<path d="M454 3643 c-56 -170 -100 -309 -99 -310 2 -4 80 19 267 78 l156 50 -106 244 c-58 135 -109 245 -112 245 -3 0 -51 -138 -106 -307z" fill="#dd7553"/>
<path d="M2750 3877 c0 -10 443 -612 450 -612 7 0 384 510 437 592 l15 23 -451 0 c-248 0 -451 -1 -451 -3z" fill="#dd7553"/>
<path d="M3765 3853 c4 -11 254 -782 278 -857 3 -10 629 668 628 681 0 4 -205 49 -456 99 -350 70 -455 88 -450 77z" fill="#dd7553"/>
<path d="M2163 3771 c-232 -47 -424 -89 -428 -92 -5 -6 115 -143 279 -319 28 -30 114 -124 190 -207 76 -84 142 -153 145 -153 4 0 32 78 63 173 101 307 218 674 218 680 0 13 -45 5 -467 -82z" fill="#dd7553"/>
<path d="M2560 3422 c-74 -227 -136 -420 -138 -427 -4 -17 -17 -21 410 118 l318 104 -208 285 c-114 156 -217 296 -227 309 l-20 25 -135 -414z" fill="#dd7553"/>
<path d="M3480 3533 c-198 -272 -232 -323 -216 -323 4 0 165 -52 358 -115 194 -63 354 -113 356 -110 2 2 -46 158 -108 347 -153 471 -162 498 -169 498 -3 0 -103 -134 -221 -297z" fill="#dd7553"/>
<path d="M6181 3785 c-1 -11 -12 -123 -25 -250 -13 -126 -22 -233 -20 -236 5 -9 123 -43 129 -37 3 3 -13 119 -35 259 -44 278 -47 294 -49 264z" fill="#dd7553"/>
<path d="M173 3522 c-22 -141 -39 -258 -38 -260 7 -8 118 34 122 46 5 12 -35 463 -41 469 -1 1 -21 -113 -43 -255z" fill="#dd7553"/>
<path d="M1240 3538 c-195 -62 -356 -113 -358 -114 -2 -1 112 -165 253 -364 142 -198 259 -359 260 -358 2 2 44 188 95 413 50 226 95 426 99 445 19 75 21 90 14 89 -5 0 -168 -50 -363 -111z" fill="#dd7553"/>
<path d="M4795 3618 c28 -136 205 -912 209 -915 4 -5 502 686 511 709 4 11 -77 40 -352 126 -197 62 -362 112 -366 112 -5 0 -6 -15 -2 -32z" fill="#dd7553"/>
<path d="M4625 3527 c-55 -60 -198 -215 -318 -345 l-217 -237 52 -18 c232 -80 791 -257 796 -253 4 5 -184 862 -207 939 -5 20 -17 11 -106 -86z" fill="#dd7553"/>
<path d="M1670 3624 c0 -5 -32 -149 -70 -320 -133 -586 -142 -626 -138 -629 2 -2 127 36 278 85 151 49 341 111 422 137 l147 47 -36 40 c-20 23 -87 95 -148 161 -62 66 -136 147 -166 180 -30 33 -88 96 -130 140 -41 44 -94 100 -117 125 -23 25 -42 40 -42 34z" fill="#dd7553"/>
<path d="M560 3324 c-112 -36 -206 -67 -208 -69 -3 -2 30 -82 73 -177 42 -95 116 -261 164 -368 85 -194 86 -195 93 -155 8 42 98 801 98 823 0 6 -3 12 -7 12 -5 -1 -100 -30 -213 -66z" fill="#dd7553"/>
<path d="M5616 3368 c2 -13 24 -198 49 -413 25 -214 49 -403 53 -418 6 -25 29 20 174 345 l166 373 -86 28 c-166 55 -337 107 -348 107 -6 0 -10 -10 -8 -22z" fill="#dd7553"/>
<path d="M791 2899 c-29 -248 -51 -452 -48 -455 3 -4 143 39 312 94 l306 99 -33 44 c-18 24 -51 69 -72 99 -143 200 -399 556 -405 562 -3 4 -30 -196 -60 -443z" fill="#dd7553"/>
<path d="M5529 3320 c-84 -111 -490 -682 -487 -685 5 -5 622 -205 624 -202 1 2 -98 831 -107 897 -4 25 -4 25 -30 -10z" fill="#dd7553"/>
<path d="M193 3209 c-45 -14 -63 -25 -63 -37 0 -29 70 -476 78 -495 4 -11 18 107 31 263 12 155 21 283 19 285 -2 2 -31 -6 -65 -16z" fill="#dd7553"/>
<path d="M6134 3208 c3 -13 15 -150 27 -305 13 -156 24 -281 26 -280 1 2 21 118 43 258 22 140 42 266 44 281 5 25 2 27 -63 47 -85 26 -82 26 -77 -1z" fill="#dd7553"/>
<path d="M2823 3045 c-188 -61 -351 -116 -363 -121 -18 -8 25 -42 341 -272 199 -145 363 -261 365 -259 2 2 3 175 2 384 l-3 379 -342 -111z" fill="#dd7553"/>
<path d="M3230 2773 c0 -212 4 -383 8 -381 30 12 721 523 715 529 -5 4 -102 37 -218 74 -115 37 -276 89 -357 115 l-148 48 0 -385z" fill="#dd7553"/>
<path d="M5916 2792 c-87 -195 -161 -363 -163 -372 -4 -14 30 -28 187 -79 106 -34 194 -60 197 -57 10 10 3 156 -26 500 -17 198 -32 360 -33 362 -2 1 -75 -158 -162 -354z" fill="#dd7553"/>
<path d="M320 3124 c0 -10 -14 -179 -30 -374 -31 -362 -34 -428 -24 -453 4 -11 41 -3 192 46 103 33 189 61 190 63 2 1 -15 44 -38 96 -23 51 -96 215 -162 363 -66 149 -122 272 -124 274 -2 2 -4 -4 -4 -15z" fill="#dd7553"/>
<path d="M1896 2744 c-226 -74 -412 -136 -414 -138 -2 -2 162 -150 365 -329 353 -311 368 -323 375 -298 4 14 28 208 53 431 25 223 48 420 51 438 3 22 1 32 -8 31 -7 0 -197 -61 -422 -135z" fill="#dd7553"/>
<path d="M4075 2838 c3 -24 26 -223 51 -443 25 -220 48 -409 52 -421 6 -18 51 18 378 305 l371 326 -201 67 c-309 103 -636 208 -647 208 -6 0 -8 -17 -4 -42z" fill="#dd7553"/>
<path d="M2390 2858 c-1 -7 -25 -215 -54 -463 -30 -247 -53 -451 -51 -453 4 -4 845 383 845 389 0 5 -684 506 -727 532 -8 5 -13 3 -13 -5z" fill="#dd7553"/>
<path d="M3637 2604 c-202 -146 -367 -269 -367 -273 0 -4 73 -41 163 -81 89 -40 203 -92 252 -115 228 -107 427 -196 430 -193 3 3 -102 904 -107 919 -2 5 -169 -110 -371 -257z" fill="#dd7553"/>
<path d="M5015 2138 c-4 -241 -5 -441 -3 -443 5 -5 620 657 626 673 1 5 -7 12 -20 16 -13 3 -152 48 -309 99 l-287 94 -7 -439z" fill="#dd7553"/>
<path d="M1065 2473 c-159 -52 -293 -98 -297 -102 -6 -5 460 -520 597 -661 l24 -24 -3 94 c-2 52 -4 251 -5 443 -1 271 -4 347 -13 346 -7 0 -143 -43 -303 -96z" fill="#dd7553"/>
<path d="M4588 2227 c-202 -177 -363 -325 -359 -330 4 -4 167 -61 363 -126 l355 -119 8 445 c4 244 5 446 3 448 -2 2 -169 -141 -370 -318z" fill="#dd7553"/>
<path d="M1445 2388 c2 -84 4 -285 5 -445 l0 -292 361 122 c198 68 361 125 362 128 2 7 -715 639 -725 639 -3 0 -5 -69 -3 -152z" fill="#dd7553"/>
<path d="M5725 2337 c-11 -29 -165 -770 -161 -774 6 -6 516 587 533 621 8 15 11 32 6 36 -4 4 -90 35 -191 68 -126 42 -184 57 -187 49z" fill="#dd7553"/>
<path d="M470 2279 c-96 -32 -176 -59 -178 -59 -1 0 6 -17 17 -37 19 -37 520 -627 526 -621 2 2 -33 177 -78 388 -62 289 -86 385 -97 387 -8 1 -94 -25 -190 -58z" fill="#dd7553"/>
<path d="M5341 1952 l-302 -327 38 -16 c71 -30 393 -133 398 -127 6 6 175 791 171 795 -1 2 -138 -145 -305 -325z" fill="#dd7553"/>
<path d="M760 2256 c0 -20 158 -768 164 -773 3 -3 102 27 221 67 l217 72 -29 32 c-16 17 -119 128 -228 246 -295 319 -345 371 -345 356z" fill="#dd7553"/>
<path d="M2728 2076 l-416 -192 91 -56 c51 -30 182 -108 292 -173 110 -65 254 -151 320 -191 66 -40 128 -76 138 -79 16 -7 17 18 17 439 0 351 -3 446 -12 445 -7 0 -201 -87 -430 -193z" fill="#dd7553"/>
<path d="M3230 1824 c0 -295 3 -445 10 -442 21 7 839 493 840 499 0 6 -37 24 -415 196 -126 58 -272 125 -324 149 -51 24 -97 44 -102 44 -5 0 -9 -193 -9 -446z" fill="#dd7553"/>
<path d="M5756 1683 c-108 -125 -196 -230 -196 -233 0 -4 26 -14 58 -24 31 -10 62 -21 69 -23 6 -3 61 95 133 239 67 134 127 249 132 256 6 6 8 12 5 12 -3 0 -94 -102 -201 -227z" fill="#dd7553"/>
<path d="M575 1653 l127 -251 61 20 c34 11 65 24 69 27 6 5 -317 390 -374 446 -6 6 47 -103 117 -242z" fill="#dd7553"/>
<path d="M1847 1721 c-192 -64 -347 -121 -346 -126 2 -11 689 -515 702 -515 4 0 7 171 7 380 0 209 -3 380 -7 379 -5 0 -165 -53 -356 -118z" fill="#dd7553"/>
<path d="M4189 1833 c-2 -4 -2 -178 1 -386 l5 -377 35 28 c31 25 559 409 648 471 19 13 30 27 25 31 -4 4 -161 58 -348 120 -187 62 -345 115 -351 117 -7 2 -14 1 -15 -4z" fill="#dd7553"/>
<path d="M2277 1823 c-3 -4 -6 -178 -6 -386 -2 -334 0 -378 13 -375 42 9 836 264 836 268 0 3 -44 30 -98 61 -82 47 -608 359 -709 420 -17 11 -34 16 -36 12z" fill="#dd7553"/>
<path d="M3698 1582 c-229 -136 -417 -249 -417 -252 -1 -5 827 -270 842 -270 9 0 8 728 -1 752 -6 13 -81 -28 -424 -230z" fill="#dd7553"/>
<path d="M1176 1496 l-209 -73 269 -196 c148 -108 270 -194 273 -191 6 5 -112 534 -119 533 -3 0 -99 -33 -214 -73z" fill="#dd7553"/>
<path d="M4943 1300 c-33 -148 -58 -270 -56 -270 7 0 533 382 538 390 3 4 -86 38 -198 75 -111 37 -207 70 -213 72 -6 2 -34 -100 -71 -267z" fill="#dd7553"/>
<path d="M1470 1522 c0 -15 117 -532 121 -535 7 -6 549 47 549 53 0 4 -125 97 -277 208 -387 280 -393 284 -393 274z" fill="#dd7553"/>
<path d="M4585 1283 c-324 -237 -338 -248 -305 -251 19 -2 145 -14 280 -26 135 -13 246 -22 248 -21 6 5 122 530 119 538 -1 4 -155 -104 -342 -240z" fill="#dd7553"/>
<path d="M5485 1346 c-16 -28 -68 -116 -115 -196 -48 -80 -92 -156 -99 -170 -7 -14 75 63 183 170 107 107 192 197 188 201 -4 3 -34 15 -68 26 l-60 20 -29 -51z" fill="#dd7553"/>
<path d="M808 1372 c-26 -9 -49 -19 -52 -22 -3 -3 83 -93 191 -200 113 -113 187 -180 176 -160 -153 266 -237 400 -252 399 -9 0 -37 -8 -63 -17z" fill="#dd7553"/>
<path d="M1023 1284 c48 -91 302 -513 321 -532 l23 -23 77 107 c43 58 74 110 69 114 -10 9 -473 343 -491 354 -11 6 -10 2 1 -20z" fill="#dd7553"/>
<path d="M5138 1134 c-133 -97 -247 -180 -252 -184 -5 -5 27 -56 69 -115 l78 -107 23 24 c13 13 60 86 105 163 45 77 105 178 132 225 83 140 99 170 94 170 -3 0 -115 -79 -249 -176z" fill="#dd7553"/>
<path d="M3065 1245 c-55 -17 -239 -76 -410 -130 -170 -54 -313 -101 -318 -105 -4 -3 180 -93 409 -199 228 -106 418 -191 420 -188 2 2 3 150 2 329 l-3 325 -100 -32z" fill="#dd7553"/>
<path d="M3230 948 c0 -302 1 -330 16 -324 88 34 822 381 817 387 -7 5 -395 130 -760 245 l-73 22 0 -330z" fill="#dd7553"/>
<path d="M1970 959 c-102 -10 -215 -22 -252 -26 l-67 -8 272 -197 c149 -108 272 -196 273 -195 1 1 4 102 7 225 l7 222 -28 -1 c-15 -1 -110 -10 -212 -20z" fill="#dd7553"/>
<path d="M4191 888 c1 -51 4 -153 8 -226 l6 -132 272 197 c149 109 266 199 260 200 -11 3 -530 53 -542 53 -3 0 -4 -42 -4 -92z" fill="#dd7553"/>
<path d="M2266 868 c-3 -50 -6 -154 -6 -231 l0 -140 38 6 c20 3 202 23 405 43 202 21 367 41 367 44 0 5 -189 94 -718 337 -39 18 -74 33 -76 33 -1 0 -6 -41 -10 -92z" fill="#dd7553"/>
<path d="M3723 777 c-216 -100 -393 -184 -393 -187 0 -3 163 -23 363 -44 199 -20 381 -40 405 -43 l42 -6 0 80 c0 130 -13 383 -19 382 -3 0 -183 -82 -398 -182z" fill="#dd7553"/>
<path d="M1496 805 c-42 -59 -76 -108 -76 -110 0 -14 103 -41 366 -100 162 -36 297 -65 300 -65 3 0 -103 79 -237 176 -134 97 -251 183 -260 190 -14 13 -24 3 -93 -91z" fill="#dd7553"/>
<path d="M4567 718 c-142 -103 -256 -188 -253 -188 30 0 608 136 634 149 l33 17 -72 99 c-39 55 -74 103 -78 106 -3 3 -122 -79 -264 -183z" fill="#dd7553"/>
<path d="M1800 499 c120 -64 388 -199 395 -199 3 0 5 32 3 72 l-3 72 -240 53 c-132 29 -242 52 -245 52 -3 1 38 -22 90 -50z" fill="#dd7553"/>
<path d="M4465 501 c-115 -26 -222 -51 -237 -54 -27 -7 -28 -9 -28 -77 0 -39 3 -70 8 -70 4 0 115 56 247 125 132 68 236 124 230 124 -5 -1 -104 -22 -220 -48z" fill="#dd7553"/>
<path d="M2732 490 c-194 -21 -357 -40 -363 -42 -6 -2 34 -22 88 -45 54 -22 223 -93 375 -157 152 -64 290 -116 307 -116 l31 0 0 200 0 200 -42 -1 c-24 -1 -202 -18 -396 -39z" fill="#dd7553"/>
<path d="M3230 330 l0 -200 30 0 c25 0 784 310 777 317 -4 3 -755 83 -783 83 l-24 0 0 -200z" fill="#dd7553"/>
<path d="M2260 346 c0 -85 -11 -76 110 -95 127 -21 386 -61 425 -66 l40 -5 -45 19 c-25 10 -148 62 -275 116 -126 53 -236 99 -242 102 -10 4 -13 -14 -13 -71z" fill="#dd7553"/>
<path d="M3858 302 c-153 -63 -276 -117 -275 -119 5 -4 547 83 553 89 3 3 4 37 2 76 l-3 71 -277 -117z" fill="#dd7553"/>
</g>
</svg>